# This file uses centimeters as units for non-parametric coordinates.

mtllib safebox1.mtl
g default
v -0.500000 -0.500000 0.500000
v 0.500000 -0.500000 0.500000
v -0.500000 0.610552 0.500000
v 0.500000 0.610552 0.500000
v -0.500000 0.610552 -0.500000
v 0.500000 0.610552 -0.500000
v -0.500000 -0.500000 -0.500000
v 0.500000 -0.500000 -0.500000
v -0.141043 0.610552 -0.500000
v 0.191879 0.610552 -0.500000
v -0.160622 0.610552 0.500000
v 0.174992 0.610552 0.500000
v -0.500000 0.610552 -0.491063
v -0.500000 0.610552 -0.218225
v -0.500000 0.610552 0.007131
v -0.500000 0.610552 0.254041
v -0.500000 0.610552 -0.239767
v -0.155759 0.610552 0.251611
v -0.146063 0.610552 -0.243627
v 0.187611 0.610552 -0.247265
v 0.179226 0.610552 0.249247
v 0.500000 0.610552 0.246983
v 0.500000 0.610552 0.006121
v 0.500000 0.610552 -0.250672
v -0.500000 0.610552 0.003306
v -0.151067 0.610552 0.011959
v 0.183284 0.610552 0.008961
v -0.500000 0.610552 0.014355
v -0.139253 0.710552 0.263912
v 0.162234 0.710552 0.261785
v -0.143630 0.710552 0.487462
v 0.158423 0.710552 0.487462
v 0.195053 0.710552 0.261671
v 0.483750 0.710552 0.259634
v 0.191242 0.710552 0.487349
v 0.483750 0.710552 0.487349
v -0.482788 0.710552 0.487581
v -0.177348 0.710552 0.487581
v -0.172971 0.710552 0.264030
v -0.482788 0.710552 0.266217
v 0.198917 0.710552 0.020833
v 0.483961 0.710552 0.018277
v 0.195265 0.710552 0.237091
v 0.483961 0.710552 0.235053
v 0.166332 0.710552 0.021094
v -0.134584 0.710552 0.023792
v -0.138807 0.710552 0.239478
v 0.162680 0.710552 0.237351
v -0.482553 0.710552 0.241937
v -0.172736 0.710552 0.239750
v -0.168513 0.710552 0.024063
v -0.482553 0.710552 0.026219
v 0.484164 0.710552 -0.237690
v 0.203014 0.710552 -0.234624
v 0.199120 0.710552 -0.004021
v 0.484164 0.710552 -0.006577
v 0.170677 0.710552 -0.234304
v -0.129629 0.710552 -0.231030
v -0.134133 0.710552 -0.001002
v 0.166783 0.710552 -0.003700
v -0.168263 0.710552 -0.000700
v -0.482303 0.710552 0.001456
v -0.163759 0.710552 -0.230728
v -0.482303 0.710552 -0.227254
v -0.482303 0.710552 -0.008488
v 0.207072 0.710552 -0.487363
v 0.203230 0.710552 -0.259902
v 0.484381 0.710552 -0.262968
v 0.484381 0.710552 -0.487363
v -0.129165 0.710552 -0.256446
v -0.124648 0.710552 -0.487181
v 0.171141 0.710552 -0.259720
v 0.174982 0.710552 -0.487181
v -0.163508 0.710552 -0.256253
v -0.482052 0.710552 -0.252779
v -0.158991 0.710552 -0.486988
v -0.482052 0.710552 -0.478945
vt 0.000000 0.000000
vt 1.000000 0.000000
vt 0.000000 1.000000
vt 1.000000 1.000000
vt 0.000000 0.000000
vt 1.000000 0.000000
vt 0.000000 1.000000
vt 1.000000 1.000000
vt 0.000000 0.000000
vt 1.000000 0.000000
vt 0.000000 1.000000
vt 1.000000 1.000000
vt 0.000000 0.000000
vt 1.000000 0.000000
vt 0.000000 1.000000
vt 1.000000 1.000000
vt 0.000000 0.000000
vt 1.000000 0.000000
vt 0.000000 1.000000
vt 1.000000 1.000000
vt 0.000000 0.000000
vt 1.000000 0.000000
vt 0.000000 1.000000
vt 1.000000 1.000000
vt 0.358957 0.000000
vt 0.358957 1.000000
vt 0.691879 0.000000
vt 0.691879 1.000000
vt 0.339378 0.000000
vt 0.339378 1.000000
vt 0.674992 0.000000
vt 0.674992 1.000000
vt 0.008937 1.000000
vt 0.000000 0.991063
vt 0.281775 1.000000
vt 0.507131 1.000000
vt 0.754041 1.000000
vt 0.000000 0.245959
vt 0.260233 1.000000
vt 0.000000 0.739767
vt 0.344241 0.248389
vt 0.353937 0.743627
vt 0.687611 0.747265
vt 0.679226 0.250753
vt 1.000000 0.253017
vt 0.253017 1.000000
vt 1.000000 0.493879
vt 0.493879 1.000000
vt 1.000000 0.750672
vt 0.750672 1.000000
vt 0.503306 1.000000
vt 0.000000 0.496694
vt 0.348933 0.488041
vt 0.683284 0.491039
vt 0.514355 1.000000
vt 0.000000 0.485645
vt 0.679226 0.250753
vt 0.344241 0.248389
vt 0.339378 0.000000
vt 0.674992 0.000000
vt 1.000000 0.253017
vt 0.679226 0.250753
vt 0.674992 0.000000
vt 1.000000 0.000000
vt 0.000000 0.000000
vt 0.339378 0.000000
vt 0.344241 0.248389
vt 0.000000 0.245959
vt 1.000000 0.493879
vt 0.683284 0.491039
vt 0.679226 0.250753
vt 1.000000 0.253017
vt 0.683284 0.491039
vt 0.348933 0.488041
vt 0.344241 0.248389
vt 0.679226 0.250753
vt 0.000000 0.245959
vt 0.344241 0.248389
vt 0.348933 0.488041
vt 0.000000 0.485645
vt 1.000000 0.750672
vt 0.687611 0.747265
vt 0.683284 0.491039
vt 1.000000 0.493879
vt 0.687611 0.747265
vt 0.353937 0.743627
vt 0.348933 0.488041
vt 0.683284 0.491039
vt 0.000000 0.485645
vt 0.348933 0.488041
vt 0.353937 0.743627
vt 0.000000 0.739767
vt 0.000000 0.496694
vt 0.691879 1.000000
vt 0.687611 0.747265
vt 1.000000 0.750672
vt 1.000000 1.000000
vt 0.358957 1.000000
vt 0.353937 0.743627
vt 0.687611 0.747265
vt 0.691879 1.000000
vt 0.000000 0.739767
vt 0.353937 0.743627
vt 0.358957 1.000000
vt 0.000000 0.991063
vn 0.000000 0.000000 1.000000
vn 0.000000 0.000000 1.000000
vn 0.000000 0.003082 0.999995
vn 0.000000 0.003114 0.999995
vn 0.000000 0.003141 0.999995
vn 0.000000 0.003136 0.999995
vn 0.000000 1.000000 -0.000000
vn 0.000000 1.000000 -0.000000
vn 0.000000 1.000000 -0.000000
vn 0.000000 1.000000 -0.000000
vn 0.000000 0.000000 -1.000000
vn 0.000000 0.001617 -0.999999
vn 0.000000 0.003064 -0.999995
vn 0.000000 0.002935 -0.999996
vn 0.000000 0.000000 -1.000000
vn 0.000000 0.000000 -1.000000
vn 0.000000 -1.000000 0.000000
vn 0.000000 -1.000000 0.000000
vn 0.000000 -1.000000 0.000000
vn 0.000000 -1.000000 0.000000
vn 1.000000 0.000000 0.000000
vn 1.000000 0.000000 0.000000
vn 0.999996 0.003009 0.000000
vn 0.999995 0.003074 0.000000
vn 0.999995 0.003068 0.000000
vn 0.999995 0.003088 0.000000
vn 0.999995 0.003176 0.000000
vn -1.000000 0.000000 0.000000
vn -1.000000 0.000000 0.000000
vn -1.000000 0.000000 0.000000
vn 0.000000 0.000000 0.000000
vn 0.000000 0.000000 0.000000
vn 0.000000 0.000000 0.000000
vn 0.000000 0.000000 0.000000
vn 0.000000 0.000000 0.000000
vn 0.000000 1.000000 -0.000000
vn 0.000000 1.000000 -0.000000
vn 0.000000 1.000000 -0.000000
vn 0.000000 1.000000 -0.000000
vn 0.000000 1.000000 0.000000
vn 0.000000 1.000000 0.000000
vn 0.000000 1.000000 0.000000
vn 0.000000 1.000000 0.000000
vn 0.000000 1.000000 0.000000
vn 0.000000 1.000000 0.000000
vn 0.000000 1.000000 0.000000
vn -1.000000 0.000000 0.000000
vn -1.000000 0.000000 0.000000
vn -1.000000 0.000000 0.000000
vn 0.000000 1.000000 0.000000
vn 0.000000 1.000000 0.000000
vn 0.000000 1.000000 0.000000
vn 0.000000 1.000000 0.000000
vn 0.000000 1.000000 -0.000000
vn 0.000000 1.000000 -0.000000
vn 0.000000 1.000000 -0.000000
vn 0.000000 1.000000 -0.000000
vn 0.000000 1.000000 -0.000000
vn 0.000000 1.000000 -0.000000
vn 0.000000 1.000000 -0.000000
vn 0.000000 1.000000 -0.000000
vn 0.000000 1.000000 0.000000
vn 0.000000 1.000000 0.000000
vn 0.000000 1.000000 0.000000
vn 0.000000 1.000000 0.000000
vn 0.000000 1.000000 0.000000
vn 0.000000 1.000000 0.000000
vn 0.000000 1.000000 0.000000
vn 0.000000 1.000000 0.000000
vn 0.000000 1.000000 0.000000
vn 0.000000 1.000000 0.000000
vn 0.000000 1.000000 0.000000
vn 0.000000 1.000000 0.000000
vn 0.000000 1.000000 0.000000
vn 0.000000 1.000000 0.000000
vn 0.000000 1.000000 0.000000
vn 0.000000 1.000000 0.000000
vn 0.000000 1.000000 0.000000
vn 0.000000 1.000000 0.000000
vn 0.000000 1.000000 0.000000
vn 0.000000 1.000000 0.000000
vn 0.000000 1.000000 -0.000000
vn 0.000000 1.000000 -0.000000
vn 0.000000 1.000000 -0.000000
vn 0.000000 1.000000 -0.000000
vn 0.000000 1.000000 -0.000000
vn -0.007003 0.123228 -0.992354
vn -0.007003 0.123228 -0.992354
vn -0.007003 0.123228 -0.992354
vn -0.007003 0.123228 -0.992354
vn -0.986081 0.165139 -0.019306
vn -0.986081 0.165138 -0.019306
vn -0.986081 0.165138 -0.019306
vn -0.986081 0.165138 -0.019306
vn 0.000000 0.124403 0.992232
vn 0.000000 0.124403 0.992232
vn 0.986074 0.165470 0.016652
vn 0.986074 0.165470 0.016652
vn 0.986074 0.165470 0.016652
vn 0.986074 0.165470 0.016652
vn -0.007003 0.124385 -0.992209
vn -0.007003 0.124385 -0.992209
vn -0.007003 0.124385 -0.992209
vn -0.007003 0.124385 -0.992209
vn -0.987247 0.158322 -0.016672
vn -0.987247 0.158322 -0.016672
vn -0.987247 0.158322 -0.016672
vn -0.987247 0.158322 -0.016672
vn 0.000000 0.125508 0.992093
vn 0.000000 0.125508 0.992093
vn 0.987052 0.160400 0.000000
vn 0.987052 0.160400 0.000000
vn 0.000000 0.123248 0.992376
vn 0.000000 0.123248 0.992376
vn 0.985723 0.167266 0.019299
vn 0.985723 0.167266 0.019299
vn 0.985723 0.167266 0.019299
vn 0.985723 0.167266 0.019299
vn -0.007006 0.122057 -0.992498
vn -0.007006 0.122057 -0.992498
vn -0.007006 0.122057 -0.992498
vn -0.007006 0.122057 -0.992498
vn -0.985508 0.169627 0.000000
vn -0.985508 0.169627 0.000000
vn -0.985508 0.169627 0.000000
vn -0.985508 0.169627 0.000000
vn -0.008903 0.119263 -0.992823
vn -0.008903 0.119263 -0.992823
vn -0.008903 0.119263 -0.992823
vn -0.008903 0.119263 -0.992823
vn -0.987559 0.156364 -0.016677
vn -0.987559 0.156364 -0.016677
vn -0.987559 0.156364 -0.016677
vn -0.987559 0.156364 -0.016677
vn 0.007007 0.119564 0.992802
vn 0.007007 0.119564 0.992802
vn 0.007007 0.119564 0.992802
vn 0.007007 0.119564 0.992802
vn 0.987381 0.158363 0.000000
vn 0.987381 0.158363 0.000000
vn -0.008904 0.118949 -0.992860
vn -0.008904 0.118949 -0.992860
vn -0.008904 0.118949 -0.992860
vn -0.008904 0.118949 -0.992860
vn -0.986133 0.164828 -0.019308
vn -0.986133 0.164828 -0.019308
vn -0.986133 0.164828 -0.019308
vn -0.986133 0.164828 -0.019308
vn 0.007006 0.119268 0.992837
vn 0.007006 0.119268 0.992837
vn 0.007006 0.119268 0.992837
vn 0.007006 0.119268 0.992837
vn 0.986128 0.165150 0.016653
vn 0.986128 0.165150 0.016653
vn 0.986128 0.165150 0.016653
vn 0.986128 0.165150 0.016653
vn 0.007009 0.118956 0.992875
vn 0.007009 0.118956 0.992875
vn 0.007009 0.118956 0.992875
vn 0.007009 0.118956 0.992875
vn 0.985329 0.169572 0.019292
vn 0.985329 0.169572 0.019292
vn 0.985329 0.169572 0.019292
vn 0.985329 0.169572 0.019292
vn -0.006816 0.118989 -0.992872
vn -0.006816 0.118989 -0.992872
vn -0.006816 0.118989 -0.992872
vn -0.006816 0.118989 -0.992872
vn -0.985120 0.171871 0.000000
vn -0.985120 0.171871 0.000000
vn -0.985120 0.171871 0.000000
vn -0.985120 0.171871 0.000000
vn -0.010817 0.127044 -0.991838
vn -0.010817 0.127044 -0.991838
vn -0.010817 0.127044 -0.991838
vn -0.010817 0.127044 -0.991838
vn -0.987887 0.154274 -0.016682
vn -0.987887 0.154274 -0.016682
vn -0.987887 0.154274 -0.016682
vn -0.987887 0.154274 -0.016682
vn 0.008894 0.127346 0.991819
vn 0.008894 0.127346 0.991818
vn 0.008894 0.127346 0.991819
vn 0.008894 0.127346 0.991818
vn 0.987692 0.156409 0.000000
vn 0.987692 0.156409 0.000000
vn -0.010814 0.126728 -0.991879
vn -0.010814 0.126728 -0.991879
vn -0.010814 0.126728 -0.991879
vn -0.010814 0.126728 -0.991879
vn -0.986189 0.164497 -0.019309
vn -0.986189 0.164497 -0.019309
vn -0.986189 0.164497 -0.019309
vn -0.986189 0.164497 -0.019309
vn 0.008895 0.127051 0.991856
vn 0.008895 0.127051 0.991856
vn 0.008895 0.127051 0.991856
vn 0.008895 0.127051 0.991856
vn 0.986180 0.164840 0.016654
vn 0.986180 0.164840 0.016654
vn 0.986180 0.164840 0.016654
vn 0.986180 0.164840 0.016654
vn 0.006809 0.126743 0.991912
vn 0.006809 0.126743 0.991912
vn 0.006809 0.126743 0.991912
vn 0.006809 0.126743 0.991912
vn 0.984940 0.171816 0.019284
vn 0.984940 0.171816 0.019284
vn 0.984940 0.171816 0.019284
vn 0.984940 0.171816 0.019284
vn -0.010818 0.126040 -0.991966
vn -0.010818 0.126040 -0.991966
vn -0.010818 0.126040 -0.991966
vn -0.010818 0.126040 -0.991966
vn -0.984700 0.174261 0.000000
vn -0.984700 0.174261 0.000000
vn -0.984700 0.174261 0.000000
vn -0.984699 0.174261 0.000000
vn -0.984699 0.174261 0.000000
vn -0.984699 0.174261 0.000000
vn -0.988202 0.152243 -0.016688
vn -0.988202 0.152243 -0.016688
vn -0.988202 0.152243 -0.016688
vn -0.988202 0.152243 -0.016688
vn 0.010822 0.123699 0.992261
vn 0.010822 0.123699 0.992261
vn 0.010822 0.123699 0.992261
vn 0.010822 0.123699 0.992261
vn 0.988020 0.154323 0.000000
vn 0.988020 0.154323 0.000000
vn 0.000000 0.125370 -0.992110
vn 0.000000 0.125370 -0.992110
vn -0.986243 0.164171 -0.019310
vn -0.986243 0.164171 -0.019310
vn -0.986243 0.164171 -0.019310
vn -0.986243 0.164171 -0.019310
vn 0.010816 0.125341 0.992055
vn 0.010816 0.125341 0.992055
vn 0.010816 0.125341 0.992055
vn 0.010816 0.125341 0.992055
vn 0.986235 0.164510 0.016655
vn 0.986235 0.164510 0.016655
vn 0.986235 0.164510 0.016655
vn 0.986235 0.164510 0.016655
vn 0.000000 0.127146 -0.991884
vn 0.000000 0.127146 -0.991884
vn 0.010817 0.127112 0.991830
vn 0.010817 0.127112 0.991830
vn 0.010817 0.127112 0.991830
vn 0.010817 0.127112 0.991829
vn 0.984523 0.174193 0.019276
vn 0.984523 0.174193 0.019276
vn 0.984523 0.174193 0.019276
vn 0.984523 0.174193 0.019276
vn -0.024695 0.124630 -0.991896
vn -0.024695 0.124630 -0.991896
vn -0.024695 0.124630 -0.991896
vn -0.024695 0.124630 -0.991896
vn -0.984273 0.176656 0.000000
vn -0.984273 0.176656 0.000000
vn -0.984273 0.176656 0.000000
vn -0.984273 0.176656 0.000000
s 1
g pCube4
usemtl blinn3SG
f 1/1/1 2/2/2 4/4/3 12/32/4 11/30/5 3/3/6
s off
f 53/81/7 54/82/8 55/83/9 56/84/10
s 2
f 5/9/11 9/25/12 10/27/13 6/10/14 8/12/15 7/11/16
s off
f 7/13/17 8/14/18 2/16/19 1/15/20
s 3
f 2/17/21 8/18/22 6/20/23 24/50/24 23/48/25 22/46/26 4/19/27
s 4
f 5/23/28 14/35/29 15/36/30 16/37/31 28/55/32 25/51/33 17/39/34 13/33/35
s off
f 49/77/36 50/78/37 51/79/38 52/80/39
f 45/73/40 46/74/41 47/75/42 48/76/43
f 13/34/44 9/26/45 5/7/46
s 4
f 7/21/47 1/22/48 3/24/49 15/36/30 14/35/29 5/23/28
f 16/37/31 15/36/30 3/24/49
s off
f 37/65/50 38/66/51 39/67/52 40/68/53
f 30/57/54 29/58/55 31/59/56 32/60/57
f 34/61/58 33/62/59 35/63/60 36/64/61
f 66/94/62 67/95/63 68/96/64 69/97/65
f 71/98/66 70/99/67 72/100/68 73/101/69
f 75/102/70 74/103/71 76/104/72 77/105/73
f 42/69/74 41/70/75 43/71/76 44/72/77
f 57/85/78 58/86/79 59/87/80 60/88/81
f 62/89/82 61/90/83 63/91/84 64/92/85 65/93/86
f 21/44/87 18/41/88 29/58/89 30/57/90
f 18/41/91 11/29/92 31/59/93 29/58/94
s 1
f 11/29/5 12/31/4 32/60/95 31/59/96
s off
f 12/31/97 21/44/98 30/57/99 32/60/100
f 22/45/101 21/44/102 33/62/103 34/61/104
f 21/44/105 12/31/106 35/63/107 33/62/108
s 1
f 12/31/4 4/6/3 36/64/109 35/63/110
s 3
f 4/6/27 22/45/26 34/61/111 36/64/112
s 1
f 3/5/6 11/29/5 38/66/113 37/65/114
s off
f 11/29/115 18/41/116 39/67/117 38/66/118
f 18/41/119 16/38/120 40/68/121 39/67/122
f 16/38/123 3/5/124 37/65/125 40/68/126
f 23/47/127 27/54/128 41/70/129 42/69/130
f 27/54/131 21/44/132 43/71/133 41/70/134
f 21/44/135 22/45/136 44/72/137 43/71/138
s 3
f 22/45/26 23/47/25 42/69/139 44/72/140
s off
f 27/54/141 26/53/142 46/74/143 45/73/144
f 26/53/145 18/41/146 47/75/147 46/74/148
f 18/41/149 21/44/150 48/76/151 47/75/152
f 21/44/153 27/54/154 45/73/155 48/76/156
f 16/38/157 18/41/158 50/78/159 49/77/160
f 18/41/161 26/53/162 51/79/163 50/78/164
f 26/53/165 28/56/166 52/80/167 51/79/168
f 28/56/169 16/38/170 49/77/171 52/80/172
f 24/49/173 20/43/174 54/82/175 53/81/176
f 20/43/177 27/54/178 55/83/179 54/82/180
f 27/54/181 23/47/182 56/84/183 55/83/184
s 3
f 23/47/25 24/49/24 53/81/185 56/84/186
s off
f 20/43/187 19/42/188 58/86/189 57/85/190
f 19/42/191 26/53/192 59/87/193 58/86/194
f 26/53/195 27/54/196 60/88/197 59/87/198
f 27/54/199 20/43/200 57/85/201 60/88/202
f 28/56/203 26/53/204 61/90/205 62/89/206
f 26/53/207 19/42/208 63/91/209 61/90/210
f 19/42/211 17/40/212 64/92/213 63/91/214
s 5
f 17/40/215 25/52/216 65/93/217 64/92/218
f 25/52/216 28/56/219 62/89/220 65/93/217
s off
f 10/28/221 20/43/222 67/95/223 66/94/224
f 20/43/225 24/49/226 68/96/227 67/95/228
s 3
f 24/49/24 6/8/23 69/97/229 68/96/230
s 2
f 6/8/14 10/28/13 66/94/231 69/97/232
s off
f 9/26/233 19/42/234 70/99/235 71/98/236
f 19/42/237 20/43/238 72/100/239 70/99/240
f 20/43/241 10/28/242 73/101/243 72/100/244
s 2
f 10/28/13 9/26/12 71/98/245 73/101/246
s off
f 17/40/247 19/42/248 74/103/249 75/102/250
f 19/42/251 9/26/252 76/104/253 74/103/254
f 9/26/255 13/34/256 77/105/257 76/104/258
f 13/34/259 17/40/260 75/102/261 77/105/262
